<?xml version="1.0" encoding="UTF-8"?>
<svg version="1.1" xmlns="http://www.w3.org/2000/svg" width="45" height="37">
<path d="M0 0 C14.85 0 29.7 0 45 0 C45 12.21 45 24.42 45 37 C30.15 37 15.3 37 0 37 C0 24.79 0 12.58 0 0 Z " fill="#FCFCFC" transform="translate(0,0)"/>
<path d="M0 0 C3 2 3 2 3.51171875 3.9453125 C3.67447917 5.96354167 3.83723958 7.98177083 4 10 C6.64 10.33 9.28 10.66 12 11 C13.1875 13.5625 13.1875 13.5625 14 17 C13.0773775 19.36499729 12.08368437 21.70433613 11 24 C8.35409986 24.02684679 5.70846904 24.04676357 3.0625 24.0625 C2.30775391 24.07087891 1.55300781 24.07925781 0.77539062 24.08789062 C-1.14994313 24.09652441 -3.07535581 24.05224333 -5 24 C-6.62280939 22.37719061 -6.2870901 20.61332134 -6.375 18.375 C-6.35430075 13.53137445 -5.23939679 11.24427557 -2.1796875 7.60546875 C-0.43802614 5.23519452 -0.21064021 2.8787495 0 0 Z " fill="#FBFBFB" transform="translate(23,5)"/>
<path d="M0 0 C2.375 0.3125 2.375 0.3125 5 1 C7.4294516 4.6441774 7.16179575 6.71241272 7 11 C7.62648438 11.02578125 8.25296875 11.0515625 8.8984375 11.078125 C10.12433594 11.16320312 10.12433594 11.16320312 11.375 11.25 C12.59316406 11.31960938 12.59316406 11.31960938 13.8359375 11.390625 C16 12 16 12 17.296875 13.796875 C18.03750059 16.11750186 18.16627723 17.59461386 17.875 20 C17.81054688 20.66 17.74609375 21.32 17.6796875 22 C16.67537504 24.95521828 15.5347603 26.16058064 13 28 C10.15349716 28.37307106 7.76714443 28.51645498 4.9375 28.4375 C4.21755859 28.44458984 3.49761719 28.45167969 2.75585938 28.45898438 C-0.1800781 28.42354595 -2.43838794 28.35058884 -4.96484375 26.7734375 C-7.09068286 23.13143389 -6.70589509 19.04458807 -6 15 C-4.37873325 12.96302383 -2.71140469 10.96185416 -1 9 C-0.29673689 6.00370296 -0.07509161 3.0719294 0 0 Z M2 2 C1.7525 3.216875 1.505 4.43375 1.25 5.6875 C0.5052919 8.77965756 0.0607967 9.93205075 -2.125 12.375 C-4.93044911 16.30262876 -4.53020142 20.3064137 -4 25 C-2.81147145 26.41774838 -2.81147145 26.41774838 0.59765625 26.09765625 C2.08596867 26.0909822 3.57426432 26.07902183 5.0625 26.0625 C5.82111328 26.05798828 6.57972656 26.05347656 7.36132812 26.04882812 C9.24091871 26.0370068 11.12046899 26.01907078 13 26 C15.57106739 20.98330489 15.57106739 20.98330489 15.1875 15.5625 C14.795625 14.716875 14.40375 13.87125 14 13 C11.36 12.67 8.72 12.34 6 12 C5.75585938 8.97265625 5.75585938 8.97265625 5.51171875 5.9453125 C5.12606964 3.60480784 5.12606964 3.60480784 2 2 Z " fill="#3A3A3A" transform="translate(21,3)"/>
<path d="M0 0 C1.65 0 3.3 0 5 0 C5 4.95 5 9.9 5 15 C3.02 15 1.04 15 -1 15 C-1.92867074 12.21398777 -2.16342217 10.38933911 -2.1875 7.5 C-2.20167969 6.7265625 -2.21585937 5.953125 -2.23046875 5.15625 C-2 3 -2 3 0 0 Z " fill="#252525" transform="translate(7,17)"/>
<path d="M0 0 C0.99 0 1.98 0 3 0 C3 3.96 3 7.92 3 12 C1.68 11.67 0.36 11.34 -1 11 C-1.02688151 9.35425434 -1.04634123 7.70838587 -1.0625 6.0625 C-1.07410156 5.14597656 -1.08570313 4.22945312 -1.09765625 3.28515625 C-1 1 -1 1 0 0 Z " fill="#DCDCDC" transform="translate(8,19)"/>
<path d="M0 0 C2.27304182 3.40956272 2.06244513 4.99181951 1.6796875 8.96484375 C0.70702737 11.87723414 -0.55414833 13.15538611 -3 15 C-6.015625 15.390625 -6.015625 15.390625 -9.25 15.25 C-10.32765625 15.21390625 -11.4053125 15.1778125 -12.515625 15.140625 C-13.74539062 15.07101563 -13.74539062 15.07101563 -15 15 C-15 14.67 -15 14.34 -15 14 C-9.06 13.505 -9.06 13.505 -3 13 C-2.690625 11.5975 -2.38125 10.195 -2.0625 8.75 C-1.41650906 5.82150775 -0.73989213 2.90624297 0 0 Z " fill="#1E1E1E" transform="translate(37,16)"/>
<path d="M0 0 C0.66 0.66 1.32 1.32 2 2 C1.90745656 6.16445467 1.24187812 7.72862455 -1.5625 10.875 C-2.366875 11.57625 -3.17125 12.2775 -4 13 C-4 12.01 -4 11.02 -4 10 C-3.2884375 9.38125 -3.2884375 9.38125 -2.5625 8.75 C-0.21852827 6.12475166 -0.32216704 3.41497058 0 0 Z " fill="#242424" transform="translate(21,5)"/>
<path d="M0 0 C2.78637633 4.1795645 1.79562512 6.14668677 1 11 C0.34 11 -0.32 11 -1 11 C-1.0270043 9.54176788 -1.04639787 8.08339325 -1.0625 6.625 C-1.07410156 5.81289063 -1.08570313 5.00078125 -1.09765625 4.1640625 C-1 2 -1 2 0 0 Z " fill="#282828" transform="translate(37,16)"/>
</svg>
