<?xml version="1.0" encoding="UTF-8"?>
<svg version="1.1" xmlns="http://www.w3.org/2000/svg" width="45" height="35">
<path d="M0 0 C14.85 0 29.7 0 45 0 C45 11.55 45 23.1 45 35 C30.15 35 15.3 35 0 35 C0 23.45 0 11.9 0 0 Z " fill="#F5F5F5" transform="translate(0,0)"/>
<path d="M0 0 C14.85 0 29.7 0 45 0 C45 11.55 45 23.1 45 35 C30.15 35 15.3 35 0 35 C0 23.45 0 11.9 0 0 Z M5.91845703 7.74731445 C4.09404125 12.22203121 4.38384972 16.68560274 4.625 21.4375 C4.65207031 22.45521484 4.67914062 23.47292969 4.70703125 24.52148438 C4.77731493 27.01655513 4.87562799 29.50713847 5 32 C6.84633218 32.68413538 6.84633218 32.68413538 9 33 C10.00417969 32.37222656 11.00835937 31.74445312 12.04296875 31.09765625 C16.86336527 28.10404464 21.7833375 28.44113044 27.3125 28.4375 C29.28786437 28.42859623 31.263225 28.40710085 33.23828125 28.37109375 C34.5382605 28.3700061 34.5382605 28.3700061 35.86450195 28.36889648 C36.56921631 28.24716064 37.27393066 28.1254248 38 28 C40.70236878 23.94644682 40.36747676 20.82094744 40.375 16.0625 C40.41173828 14.84530273 40.41173828 14.84530273 40.44921875 13.60351562 C40.45308594 12.81783203 40.45695312 12.03214844 40.4609375 11.22265625 C40.47326416 10.15156616 40.47326416 10.15156616 40.48583984 9.05883789 C39.77226874 6.03494589 38.44497954 4.86814928 36 3 C31.91724202 2.13048899 27.79029593 2.30538389 23.625 2.3125 C22.5009375 2.27189453 21.376875 2.23128906 20.21875 2.18945312 C14.02967265 2.1638482 9.60051413 2.37724935 5.91845703 7.74731445 Z " fill="#F6F6F6" transform="translate(0,0)"/>
<path d="M0 0 C1.13179687 -0.00193359 2.26359375 -0.00386719 3.4296875 -0.00585938 C11.65243837 0.13540826 11.65243837 0.13540826 14.69921875 2.46337891 C16.5400517 4.90655901 16.8705229 5.90495585 16.8359375 8.91015625 C16.83207031 9.69583984 16.82820313 10.48152344 16.82421875 11.29101562 C16.78748047 12.50821289 16.78748047 12.50821289 16.75 13.75 C16.74871094 14.56533203 16.74742188 15.38066406 16.74609375 16.22070312 C16.65669643 22.26495536 16.65669643 22.26495536 14.375 25.6875 C12.23950195 26.05639648 12.23950195 26.05639648 9.61328125 26.05859375 C8.65873047 26.07599609 7.70417969 26.09339844 6.72070312 26.11132812 C4.71811253 26.12035461 2.71550113 26.12563821 0.71289062 26.12695312 C-5.75087414 26.25267357 -9.18167785 27.28455021 -14.625 30.6875 C-16.81518555 30.30639648 -16.81518555 30.30639648 -18.625 29.6875 C-18.8006269 26.16730654 -18.90628466 22.64825065 -19 19.125 C-19.05027344 18.13435547 -19.10054687 17.14371094 -19.15234375 16.12304688 C-19.24710741 11.36907008 -19.13840147 7.5230964 -16.390625 3.515625 C-11.84256697 -0.95114573 -5.98004059 -0.21602211 0 0 Z M-16.625 6.6875 C-16.90265416 9.01567205 -16.90265416 9.01567205 -16.8203125 11.6953125 C-16.81386719 12.68144531 -16.80742187 13.66757813 -16.80078125 14.68359375 C-16.78402344 15.71613281 -16.76726563 16.74867187 -16.75 17.8125 C-16.74097656 18.85277344 -16.73195313 19.89304687 -16.72265625 20.96484375 C-16.69903747 23.53929092 -16.66610149 26.11328212 -16.625 28.6875 C-14.43942172 28.2191618 -12.6564953 27.70446327 -10.67993164 26.63989258 C-8.22026835 25.49992032 -6.44871222 25.44792228 -3.74609375 25.44921875 C-2.82505859 25.43310547 -1.90402344 25.41699219 -0.95507812 25.40039062 C0.97714612 25.38342984 2.90950911 25.37826836 4.84179688 25.38476562 C10.27068783 25.44500067 10.27068783 25.44500067 14.5078125 22.48828125 C15.41583335 19.55561933 15.74348228 17.25360658 15.6875 14.1875 C15.68169922 12.81078125 15.68169922 12.81078125 15.67578125 11.40625 C15.33959153 8.36744419 14.94346446 6.32722116 13.375 3.6875 C8.86478258 1.46594946 4.31839571 1.35176976 -0.625 1.375 C-1.31078125 1.35888672 -1.9965625 1.34277344 -2.703125 1.32617188 C-8.4130027 1.32072352 -12.56107149 2.62357149 -16.625 6.6875 Z " fill="#0C0C0C" transform="translate(23.625,2.3125)"/>
<path d="M0 0 C1.13179687 -0.00193359 2.26359375 -0.00386719 3.4296875 -0.00585938 C11.73986122 0.1369102 11.73986122 0.1369102 14.72802734 2.72729492 C15.54327881 3.69759644 15.54327881 3.69759644 16.375 4.6875 C15.715 6.0075 15.055 7.3275 14.375 8.6875 C14.0346875 7.4809375 14.0346875 7.4809375 13.6875 6.25 C13.254375 5.404375 12.82125 4.55875 12.375 3.6875 C8.17425045 2.38951559 3.80073956 2.46991032 -0.5625 2.4375 C-1.25279297 2.416875 -1.94308594 2.39625 -2.65429688 2.375 C-7.41031367 2.33893542 -10.56750202 3.23441725 -14.625 5.6875 C-16.27579442 7.33829442 -15.85049447 9.32486179 -15.94140625 11.59765625 C-15.98330078 12.58701172 -16.02519531 13.57636719 -16.06835938 14.59570312 C-16.12733398 16.15708008 -16.12733398 16.15708008 -16.1875 17.75 C-16.23068359 18.79478516 -16.27386719 19.83957031 -16.31835938 20.91601562 C-16.42481225 23.50636884 -16.5268276 26.09682186 -16.625 28.6875 C-16.955 28.6875 -17.285 28.6875 -17.625 28.6875 C-17.96995054 25.33661624 -18.24113553 21.9835434 -18.5 18.625 C-18.59796875 17.68205078 -18.6959375 16.73910156 -18.796875 15.76757812 C-19.12232938 11.09730779 -19.1318136 7.49916207 -16.421875 3.546875 C-11.85140087 -0.94258135 -6.01354505 -0.21723242 0 0 Z " fill="#383838" transform="translate(23.625,2.3125)"/>
<path d="M0 0 C1.67542976 0.28604898 3.34385343 0.61781233 5 1 C5 2.65 5 4.3 5 6 C3.35 6 1.7 6 0 6 C-0.38218767 4.34385343 -0.71395102 2.67542976 -1 1 C-0.67 0.67 -0.34 0.34 0 0 Z " fill="#4F4F4F" transform="translate(13,13)"/>
<path d="M0 0 C1.65 0.33 3.3 0.66 5 1 C4.67 2.65 4.34 4.3 4 6 C2.35 5.67 0.7 5.34 -1 5 C-0.67 3.35 -0.34 1.7 0 0 Z " fill="#545454" transform="translate(29,13)"/>
<path d="M0 0 C1.65 0.33 3.3 0.66 5 1 C4.67 2.65 4.34 4.3 4 6 C2.35 5.67 0.7 5.34 -1 5 C-0.67 3.35 -0.34 1.7 0 0 Z " fill="#505050" transform="translate(21,13)"/>
<path d="M0 0 C0.33 0 0.66 0 1 0 C1.05394705 2.60444348 1.09364469 5.20776998 1.125 7.8125 C1.14175781 8.55048828 1.15851562 9.28847656 1.17578125 10.04882812 C1.21074628 13.91246426 1.19397555 15.70903668 -1 19 C-1.66 19 -2.32 19 -3 19 C-2.68289062 18.15179687 -2.36578125 17.30359375 -2.0390625 16.4296875 C-0.97128768 12.90522775 -0.59958921 9.79329043 -0.375 6.125 C-0.30023438 4.97257813 -0.22546875 3.82015625 -0.1484375 2.6328125 C-0.09945312 1.76398437 -0.05046875 0.89515625 0 0 Z " fill="#1C1C1C" transform="translate(39,9)"/>
</svg>
