<?xml version="1.0" encoding="UTF-8"?>
<svg version="1.1" xmlns="http://www.w3.org/2000/svg" width="25" height="25">
<path d="M0 0 C8.25 0 16.5 0 25 0 C25 8.25 25 16.5 25 25 C16.75 25 8.5 25 0 25 C0 16.75 0 8.5 0 0 Z " fill="#F5F5F5" transform="translate(0,0)"/>
<path d="M0 0 C4.29 0.33 8.58 0.66 13 1 C13 1.33 13 1.66 13 2 C9.04 2 5.08 2 1 2 C0.67 2.66 0.34 3.32 0 4 C4.62 4 9.24 4 14 4 C14.33 5.98 14.66 7.96 15 10 C15.33 7.69 15.66 5.38 16 3 C15.34 2.67 14.68 2.34 14 2 C14.99 2 15.98 2 17 2 C17.25166992 8.29174812 16.87021796 13.25956408 14 19 C11.18743719 19.02684312 8.37512759 19.04676188 5.5625 19.0625 C4.76005859 19.07087891 3.95761719 19.07925781 3.13085938 19.08789062 C1.08704779 19.0965143 -0.95683902 19.0522815 -3 19 C-4 18 -4 18 -4.09765625 15.05859375 C-4.08605469 13.86363281 -4.07445312 12.66867187 -4.0625 11.4375 C-4.05347656 10.23996094 -4.04445313 9.04242188 -4.03515625 7.80859375 C-4.02355469 6.88175781 -4.01195312 5.95492188 -4 5 C-3.01 4.67 -2.02 4.34 -1 4 C-0.67 2.68 -0.34 1.36 0 0 Z " fill="#A1A4A6" transform="translate(6,3)"/>
<path d="M0 0 C0.804375 0.5259375 0.804375 0.5259375 1.625 1.0625 C4.7634242 2.30135166 6.76212444 1.77427459 10 1 C10.66 0.67 11.32 0.34 12 0 C12 1.98 12 3.96 12 6 C7.05 6 2.1 6 -3 6 C-3 4.68 -3 3.36 -3 2 C-2.01 1.34 -1.02 0.68 0 0 Z " fill="#EFEFEF" transform="translate(7,15)"/>
<path d="M0 0 C4.95 0 9.9 0 15 0 C15.14285714 9.57142857 15.14285714 9.57142857 14 14 C13.67 14 13.34 14 13 14 C13 10.37 13 6.74 13 3 C8.38 3 3.76 3 -1 3 C-0.67 2.01 -0.34 1.02 0 0 Z " fill="#DFE0E1" transform="translate(7,4)"/>
<path d="M0 0 C0.3125 2.8125 0.3125 2.8125 0 6 C-2.375 7.9375 -2.375 7.9375 -5 9 C-5.66 8.67 -6.32 8.34 -7 8 C-7 7.34 -7 6.68 -7 6 C-6.34 5.67 -5.68 5.34 -5 5 C-4.67 4.01 -4.34 3.02 -4 2 C-4.99 1.67 -5.98 1.34 -7 1 C-4.53721199 -0.231394 -2.7204945 -0.07159196 0 0 Z " fill="#F0F0F1" transform="translate(19,8)"/>
</svg>
