<?xml version="1.0" encoding="UTF-8"?>
<svg version="1.1" xmlns="http://www.w3.org/2000/svg" width="36" height="37">
<path d="M0 0 C11.88 0 23.76 0 36 0 C36 12.21 36 24.42 36 37 C24.12 37 12.24 37 0 37 C0 24.79 0 12.58 0 0 Z " fill="#F5F5F5" transform="translate(0,0)"/>
<path d="M0 0 C11.88 0 23.76 0 36 0 C36 12.21 36 24.42 36 37 C24.12 37 12.24 37 0 37 C0 24.79 0 12.58 0 0 Z M5.75390625 8.54296875 C2.75830933 13.07264299 2.3197663 16.64315964 3 22 C4.87178116 25.18288354 4.87178116 25.18288354 7 28 C7.62890625 30.67578125 7.62890625 30.67578125 8 33 C10.54405638 32.93957111 13.08256731 32.85240972 15.625 32.75 C16.33785156 32.73582031 17.05070312 32.72164062 17.78515625 32.70703125 C22.91422574 32.47175283 25.88971386 31.30434768 30 28 C33.51600286 23.99903123 34.36557438 20.40144887 34.27734375 15.05859375 C33.65069813 10.40729458 30.74205833 7.68776138 27.4375 4.625 C19.72171768 0.97753927 11.32064813 1.64998115 5.75390625 8.54296875 Z " fill="#FAFAFA" transform="translate(0,0)"/>
<path d="M0 0 C3.97514042 3.68427649 6.75621195 6.82087222 7 12.375 C6.69871779 17.63739586 4.92642385 21.14414189 1 24.6875 C-3.15716422 27.56553677 -6.62470975 27.67739188 -11.5625 27.9375 C-12.69365234 28.00227539 -12.69365234 28.00227539 -13.84765625 28.06835938 C-15.71071888 28.1744832 -17.57408524 28.27525001 -19.4375 28.375 C-19.73398437 27.43398438 -20.03046875 26.49296875 -20.3359375 25.5234375 C-21.28196762 22.38110292 -21.28196762 22.38110292 -23.0625 20 C-24.94403834 16.40797226 -25.20762822 13.29041822 -24.4375 9.375 C-22.7149125 5.40525103 -20.45547075 2.33309011 -17.3125 -0.625 C-11.4549741 -2.66240031 -5.61018206 -2.65208606 0 0 Z M-20.8125 5.625 C-22.98305578 9.29824824 -23.16835409 12.20233306 -22.4375 16.375 C-21.06500037 19.05176547 -21.06500037 19.05176547 -19.4375 21.375 C-19.06282786 23.03286299 -18.72368068 24.69959273 -18.4375 26.375 C-8.87983562 27.31188303 -8.87983562 27.31188303 -0.1875 24.125 C3.35427799 20.58322201 4.8494076 18.02126684 4.9375 13 C4.8248312 8.43315811 3.62891787 5.85579866 0.5625 2.375 C-2.90101345 -0.51126121 -5.9280458 -1.1638804 -10.44921875 -0.9765625 C-14.87438914 -0.19411587 -17.65955288 2.63799747 -20.8125 5.625 Z " fill="#222222" transform="translate(27.4375,4.625)"/>
<path d="M0 0 C-0.58054881 3.91870446 -2.05667889 6.35855798 -5 9 C-8.9375 8.6875 -8.9375 8.6875 -11.02734375 8.265625 C-13.76630338 7.89681459 -15.6009514 8.72550543 -18 10 C-17.46930939 6.17902761 -16.50298434 3.93828597 -14 1 C-12.01432292 1.32552083 -10.02864583 1.65104167 -8.04296875 1.9765625 C-4.77440852 2.01406032 -3.46606772 0 0 0 Z " fill="#242424" transform="translate(28,13)"/>
<path d="M0 0 C0 0.66 0 1.32 0 2 C-2 3.33333333 -4 4.66666667 -6 6 C-8.84588075 8.65615536 -8.99061494 9.90302109 -9.375 13.875 C-9.24248854 17.80617328 -8.03185332 20.6135778 -6 24 C-6.99 24 -7.98 24 -9 24 C-11.82292703 20.6543087 -12.59181781 17.49606212 -12.41796875 13.125 C-11.40504022 7.97515773 -8.45322947 4.08147309 -4.3125 1 C-2 0 -2 0 0 0 Z " fill="#303030" transform="translate(15,3)"/>
<path d="M0 0 C1.093125 0.33 2.18625 0.66 3.3125 1 C6.84578884 2.13086649 6.84578884 2.13086649 10 2 C9.01 3.485 9.01 3.485 8 5 C4.7 4.67 1.4 4.34 -2 4 C-1.34 2.68 -0.68 1.36 0 0 Z " fill="#DEDEDE" transform="translate(15,15)"/>
<path d="M0 0 C-0.47202486 4.24822374 -2.96655518 6.19989709 -6 9 C-6.66 8.34 -7.32 7.68 -8 7 C-7.01 7 -6.02 7 -5 7 C-4.67 6.01 -4.34 5.02 -4 4 C-4.66 3.34 -5.32 2.68 -6 2 C-3 0 -3 0 0 0 Z " fill="#323232" transform="translate(28,13)"/>
<path d="M0 0 C0 0.66 0 1.32 0 2 C-5.29411765 6 -5.29411765 6 -9 6 C-3.15384615 -0 -3.15384615 -0 0 0 Z " fill="#3A3A3A" transform="translate(15,3)"/>
</svg>
